<?xml version="1.0" standalone="no"?><svg xmlns="http://www.w3.org/2000/svg" viewBox="0 0 1440 320"><path fill="#0099ff" fill-opacity="1" d="M0,288L0,192L36.9,192L36.9,320L73.8,320L73.8,288L110.8,288L110.8,192L147.7,192L147.7,64L184.6,64L184.6,160L221.5,160L221.5,288L258.5,288L258.5,256L295.4,256L295.4,128L332.3,128L332.3,224L369.2,224L369.2,64L406.2,64L406.2,192L443.1,192L443.1,192L480,192L480,288L516.9,288L516.9,64L553.8,64L553.8,288L590.8,288L590.8,224L627.7,224L627.7,128L664.6,128L664.6,64L701.5,64L701.5,32L738.5,32L738.5,128L775.4,128L775.4,224L812.3,224L812.3,128L849.2,128L849.2,32L886.2,32L886.2,224L923.1,224L923.1,96L960,96L960,96L996.9,96L996.9,224L1033.8,224L1033.8,288L1070.8,288L1070.8,96L1107.7,96L1107.7,96L1144.6,96L1144.6,0L1181.5,0L1181.5,96L1218.5,96L1218.5,256L1255.4,256L1255.4,192L1292.3,192L1292.3,288L1329.2,288L1329.2,192L1366.2,192L1366.2,192L1403.1,192L1403.1,256L1440,256L1440,320L1403.1,320L1403.1,320L1366.2,320L1366.2,320L1329.2,320L1329.2,320L1292.3,320L1292.3,320L1255.4,320L1255.4,320L1218.5,320L1218.5,320L1181.5,320L1181.5,320L1144.6,320L1144.6,320L1107.7,320L1107.7,320L1070.8,320L1070.8,320L1033.8,320L1033.8,320L996.9,320L996.9,320L960,320L960,320L923.1,320L923.1,320L886.2,320L886.2,320L849.2,320L849.2,320L812.3,320L812.3,320L775.4,320L775.4,320L738.5,320L738.5,320L701.5,320L701.5,320L664.6,320L664.6,320L627.7,320L627.7,320L590.8,320L590.8,320L553.8,320L553.8,320L516.9,320L516.9,320L480,320L480,320L443.1,320L443.1,320L406.2,320L406.2,320L369.2,320L369.2,320L332.3,320L332.3,320L295.4,320L295.4,320L258.5,320L258.5,320L221.5,320L221.5,320L184.6,320L184.6,320L147.7,320L147.7,320L110.8,320L110.8,320L73.8,320L73.8,320L36.9,320L36.9,320L0,320L0,320Z"></path></svg>